# xmcd
# 
# Track frame offsets:
#     150
#     17795
#     29102
#     42189
#     54485
#     70603
#     86020
#     100194
#     116058
#     131791
#     146649
#     163114
#     178173
#     195513
#     209340
#     224129
#     242218
# 
# Disc length: 3457
# 
# Revision: 10
# Processed by: cddbd v1.5.2PL0 Copyright (c) Steve Scherf et al.
# Submitted via: fre:ac v1.0.31
# 
DISCID=080d7f11
DTITLE=Reba McEntire - Reba #1's [CD1
DYEAR=2005
DGENRE=Country
TTITLE0=You're Gonna Be
TTITLE1=Can't Even Get The Blues
TTITLE2=You're The First Time I've Thought About Leaving
TTITLE3=How Blue
TTITLE4=Somebody Should Leave
TTITLE5=Whoever's In New England
TTITLE6=Little Rock
TTITLE7=What Am I Gonna Do About You
TTITLE8=One Promise Too Late
TTITLE9=The Last One To Know
TTITLE10=Love Will Find Its Way To You
TTITLE11=I Know How She Feels
TTITLE12=New Fool At An Old Game
TTITLE13=Cathy's Clown
TTITLE14=Walk On
TTITLE15=You Lie
TTITLE16=Rumor Has It
EXTD=
EXTT0=
EXTT1=
EXTT2=
EXTT3=
EXTT4=
EXTT5=
EXTT6=
EXTT7=
EXTT8=
EXTT9=
EXTT10=
EXTT11=
EXTT12=
EXTT13=
EXTT14=
EXTT15=
EXTT16=
PLAYORDER=
